<svg width="47" height="40" viewBox="0 0 47 40" fill="none" xmlns="http://www.w3.org/2000/svg">
<path fill-rule="evenodd" clip-rule="evenodd" d="M44.7264 24H2.31276C0 24 0 22.36 0 20C0 17.64 0 16 2.31276 16H44.6872C47 16 47 17.64 47 20C47 22.36 47 24 44.6872 24H44.7264ZM44.7264 8H2.31276C0 8 0 6.36 0 4C0 1.64 0 0 2.31276 0H44.6872C47 0 47 1.64 47 4C47 6.36 47 8 44.6872 8H44.7264ZM2.31276 32H44.6872C47 32 47 33.64 47 36C47 38.36 47 40 44.6872 40H2.31276C0 40 0 38.36 0 36C0 33.64 0 32 2.31276 32Z" fill="#8D46F6"/>
</svg>
