<svg width="62" height="59" viewBox="0 0 62 59" fill="none" xmlns="http://www.w3.org/2000/svg">
<rect width="62" height="59" rx="12" fill="#8D46F6"/>
<path fill-rule="evenodd" clip-rule="evenodd" d="M51.7264 34H9.31276C7 34 7 32.36 7 30C7 27.64 7 26 9.31276 26H51.6872C54 26 54 27.64 54 30C54 32.36 54 34 51.6872 34H51.7264ZM51.7264 18H9.31276C7 18 7 16.36 7 14C7 11.64 7 10 9.31276 10H51.6872C54 10 54 11.64 54 14C54 16.36 54 18 51.6872 18H51.7264ZM9.31276 42H51.6872C54 42 54 43.64 54 46C54 48.36 54 50 51.6872 50H9.31276C7 50 7 48.36 7 46C7 43.64 7 42 9.31276 42Z" fill="#F6F8FF"/>
</svg>
