<svg width="355" height="45" viewBox="0 0 355 45" fill="none" xmlns="http://www.w3.org/2000/svg">
<path d="M111.516 24.5024C112.493 20.3068 115.633 18.48 119.242 18.48C122.845 18.48 126.389 20.2939 126.864 24.5024H111.516ZM131.698 37.761L132.213 31.9865C123.731 36.6387 113.255 37.2912 111.666 29.1482H133.086V26.5708C132.825 17.8013 126.135 13.4688 119.236 13.4688C112.18 13.4688 105.281 17.9579 105.281 27.0863C105.281 40.9061 120.115 43.7379 131.698 37.761Z" fill="black"/>
<path d="M174.754 2.7417H168.832V39.9794H174.754V28.5282C177.021 28.5282 178.773 28.5282 180.571 30.179C183.093 32.7563 184.949 36.0579 186.65 39.9794H193.444C191.797 34.7204 186.598 26.5186 181.086 26.5186V25.742C185.62 25.742 191.177 18.6234 192.67 14.1929H186.441C185.001 17.2857 183.093 20.124 180.467 22.4469C178.715 24.0977 176.604 24.0455 174.754 24.0455V2.7417Z" fill="black"/>
<path d="M204.741 19.811V10.2194H213.496C218.18 10.2194 219.985 12.5945 219.985 15.0152C219.985 17.3903 218.18 19.811 213.496 19.811H204.741ZM204.741 34.5574V24.9658H214.938C219.621 24.9658 221.425 27.3408 221.425 29.7615C221.425 32.1365 219.522 34.5574 214.833 34.5574H204.741ZM214.781 4.80371H198.559V39.9731H216.323C223.893 39.9731 227.706 35.6926 227.706 30.5381C227.706 25.9966 224.408 22.7538 218.8 22.3884V21.5663C224.154 20.5874 226.162 17.2337 226.162 13.7298C226.162 8.97966 222.454 4.80371 214.781 4.80371Z" fill="black"/>
<path d="M232.258 14.1867V39.9733H238.181V22.6495C240.396 20.4311 243.274 19.6612 247.966 19.6612H250.337L249.874 13.73H247.971C244.056 13.73 240.35 15.433 238.911 18.9891H238.186V14.1867H232.258Z" fill="black"/>
<path d="M257.555 27.0802C257.555 21.41 260.767 18.5194 265.092 18.5194C268.592 18.5194 271.034 19.6026 273.198 21.821V32.3392C271.034 34.5578 268.592 35.6408 265.092 35.6408C260.774 35.6408 257.555 32.7568 257.555 27.0802ZM273.203 14.1869V17.9518H272.532C270.212 14.9112 267.517 13.3647 263.548 13.3647C255.463 13.3647 251.426 19.9157 251.426 27.0802C251.426 34.2445 255.463 40.7955 263.548 40.7955C267.517 40.7955 270.212 39.2492 272.532 36.2086H273.203V39.9734H279.126V14.1869H273.203Z" fill="black"/>
<path d="M286.252 39.9732H292.175V14.1866H286.252V39.9732ZM289.243 10.8916C291.711 10.8916 293.36 9.24076 293.36 6.7678C293.36 4.29486 291.711 2.64404 289.243 2.64404C286.774 2.64404 285.125 4.29486 285.125 6.7678C285.119 9.24076 286.766 10.8916 289.243 10.8916Z" fill="black"/>
<path d="M305.23 14.1869H299.309V39.9734H305.23V21.821C307.393 19.7069 309.784 18.5194 312.662 18.5194C315.804 18.5194 318.76 20.2747 318.76 25.5337V39.9734H324.683V24.1962C324.683 17.5407 321.568 13.3647 315.138 13.3647C311.64 13.3647 308.116 14.859 305.798 18.1606H305.23V14.1869Z" fill="black"/>
<path d="M329.652 21.6708C329.652 26.2578 333.926 28.0652 337.222 28.7894L344.792 30.3881C347.261 30.9035 348.395 31.6279 348.395 32.8611C348.395 34.7207 345.822 35.5949 342.062 35.5949C337.634 35.5949 332.538 33.892 329.704 32.3455L330.219 38.1723C333.516 39.8753 337.79 40.8018 341.75 40.8018C349.112 40.8018 354.571 38.3811 354.571 32.6C354.571 27.9086 350.656 26.1534 346.077 25.1747L339.176 23.7327C337.014 23.2695 335.829 22.5452 335.829 21.312C335.829 19.5567 338.147 18.6302 341.855 18.6302C346.024 18.6302 350.505 20.1767 352.871 21.4685L352.356 15.6418C349.522 14.1998 345.867 13.3711 342.161 13.3711C335.425 13.3646 329.652 15.7396 329.652 21.6708Z" fill="black"/>
<path d="M83.7263 20.5486V26.2056H94.71V32.5413C91.7459 34.2574 88.684 35.0403 85.772 35.0403C78.8079 35.0403 72.4755 30.5122 72.4755 22.4472C72.4755 14.3824 78.8144 9.85414 85.772 9.85414C90.2411 9.85414 94.9967 11.6616 99.3094 15.3025L98.6709 8.10547C94.5017 5.37152 89.9153 4.07959 85.0748 4.07959C75.3941 4.07959 65.9219 10.5784 65.9219 22.4407C65.9219 34.3031 75.3941 40.8018 85.0748 40.8018C89.9153 40.8018 94.9641 39.7188 100.678 35.4906V20.5486H83.7263Z" fill="black"/>
<path d="M31.8846 15.8306C32.1396 15.8306 32.4402 15.7784 32.6951 15.7327L32.7931 15.8828C32.6951 16.5875 33.048 16.9464 33.4008 17.351C35.074 19.1716 37.7012 20.5354 40.8905 18.8191C42.2563 20.0851 42.2563 24.3266 40.8905 25.5925C37.7012 23.8764 35.074 25.2402 33.4008 27.0607C33.048 27.4654 32.6951 27.8177 32.7931 28.529L32.6951 28.679C32.4402 28.6268 32.1396 28.5812 31.8846 28.5812C30.009 28.5812 28.5451 30.0951 28.5451 31.9157C28.5451 33.7363 30.0154 35.1979 31.8846 35.1979C33.6557 35.1979 35.172 33.7298 35.172 31.9157C35.172 31.361 35.0216 30.8521 34.7667 30.4017L34.9171 30.2518C35.3746 30.3496 35.6228 30.1016 36.0803 29.6448C36.9889 28.7378 38.0019 27.9744 39.322 28.8356C41.1454 30.0494 40.1846 32.3202 38.7665 34.2452C36.6947 37.0773 33.7079 39.3482 31.2246 40.2095C29.1986 40.9143 27.2772 40.7119 25.9636 40.2616V44.0008C31.8846 45.6712 37.3482 42.1802 41.4982 36.6726C43.5242 33.9972 45.3411 30.7086 43.2694 27.4262L43.4196 27.2239C43.9751 27.2762 44.3803 26.9237 44.6875 26.3626C46.1057 23.935 46.1057 20.5027 44.6875 18.0753C44.3868 17.5729 44.0797 17.1683 43.4196 17.214L43.2694 17.0117C45.3411 13.7294 43.5242 10.3949 41.4982 7.76519C37.76 2.79285 33.1524 0.0652369 29.0026 0.0652369C23.9898 0.0652369 20.1993 4.00658 20.1993 8.90714V12.594C20.1993 15.1715 21.2123 16.4831 22.9311 18.3559L24.4016 19.9219C24.8591 20.4244 25.1597 20.7834 25.8721 20.7834L26.0223 20.9334C25.8721 21.2857 25.7674 21.7425 25.7674 22.1472C25.7674 23.9678 27.2837 25.4817 29.0548 25.4817C30.9305 25.4817 32.3945 23.9678 32.3945 22.1472C32.3945 20.3266 30.924 18.8648 29.0548 18.8648C28.702 18.8648 28.2967 18.9172 27.9896 19.0671L27.8392 18.9172C27.8392 18.2124 27.4863 17.9056 27.0288 17.4489L25.5126 15.8828C24.4473 14.7735 23.8918 13.762 23.8918 12.2416V8.90714C23.8918 6.98867 24.552 5.46825 25.8656 4.56124C27.2315 3.60199 29.2051 3.49759 31.2311 4.20887C34.1132 5.2203 37.0476 7.79783 38.773 10.1731C40.1911 12.0915 41.1518 14.3689 39.3285 15.5826C38.2632 16.2874 37.2567 15.9872 36.087 14.7735C35.6295 14.271 35.3289 14.1144 34.9236 14.1666L34.7734 14.0165C35.0282 13.5597 35.1785 13.0573 35.1785 12.5026C35.1785 10.6821 33.6624 9.22036 31.8912 9.22036C30.0154 9.22036 28.5516 10.6886 28.5516 12.5026C28.5516 14.3167 30.0154 15.8306 31.8846 15.8306ZM13.8731 28.5616C13.6182 28.5616 13.3175 28.6139 13.0627 28.6596L12.9646 28.5094C13.0627 27.8046 12.7098 27.4458 12.3568 27.0411C10.6838 25.2206 8.05653 23.8568 4.86726 25.5731C3.50136 24.3071 3.50136 20.0657 4.86726 18.7997C8.05653 20.5158 10.6838 19.152 12.3568 17.3314C12.7098 16.9268 13.0627 16.5745 12.9646 15.8632L13.0627 15.7131C13.3175 15.7653 13.6182 15.811 13.8731 15.811C15.7487 15.811 17.2126 14.2971 17.2126 12.4765C17.2126 10.6559 15.7422 9.19426 13.8731 9.19426C12.1019 9.19426 10.5857 10.6625 10.5857 12.4765C10.5857 13.0312 10.736 13.5402 10.9909 13.9904L10.8406 14.1405C10.3831 14.0426 10.1348 14.2906 9.67731 14.7474C8.7689 15.6544 7.75591 16.4179 6.43574 15.5565C4.61237 14.3428 5.57306 12.072 6.99126 10.147C9.06298 7.31495 12.0497 5.04411 14.5331 4.18275C16.5591 3.47801 18.4805 3.6803 19.7941 4.13056V0.417609C13.8731 -1.24637 8.40291 2.23819 4.25291 7.74562C2.22694 10.421 0.410097 13.7098 2.48183 16.9921L2.33152 17.1944C1.776 17.1422 1.3708 17.4946 1.06364 18.0557C-0.354546 20.4833 -0.354546 23.9156 1.06364 26.343C1.36427 26.8455 1.67143 27.2499 2.33152 27.2043L2.48183 27.4066C0.410097 30.6823 2.23348 34.0233 4.25291 36.6465C7.9977 41.5993 12.6052 44.327 16.7552 44.327C21.7678 44.327 25.5583 40.3857 25.5583 35.4851V31.7982C25.5583 29.2207 24.5453 27.9091 22.8266 26.0364L21.3561 24.4703C20.8986 23.9678 20.5979 23.6088 19.8856 23.6088L19.7353 23.4588C19.8856 23.1065 19.9902 22.6497 19.9902 22.245C19.9902 20.4244 18.474 18.9105 16.7029 18.9105C14.8272 18.9105 13.3633 20.4244 13.3633 22.245C13.3633 24.0656 14.8337 25.5274 16.7029 25.5274C17.0558 25.5274 17.461 25.475 17.7682 25.3251L17.9185 25.475C17.9185 26.1799 18.2714 26.4865 18.7289 26.9433L20.2451 28.5094C21.3103 29.6187 21.8658 30.6301 21.8658 32.1506V35.4851C21.8658 37.4035 21.2059 38.9239 19.8922 39.8311C18.5263 40.7902 16.5526 40.8947 14.5266 40.1834C11.6445 39.1719 8.71007 36.5944 6.98472 34.2192C5.56655 32.3007 4.60583 30.0234 6.42922 28.8096C7.49448 28.1047 8.50095 28.4051 9.67079 29.6187C10.1283 30.1212 10.4289 30.2778 10.8341 30.2257L10.9844 30.3757C10.7295 30.8325 10.5792 31.335 10.5792 31.8896C10.5792 33.7102 12.0954 35.1718 13.8665 35.1718C15.7422 35.1718 17.2061 33.7037 17.2061 31.8896C17.2126 30.082 15.7422 28.5616 13.8731 28.5616Z" fill="black"/>
<path d="M142.677 24.5024C143.654 20.3068 146.795 18.48 150.404 18.48C154.013 18.48 157.55 20.2939 158.026 24.5024H142.677ZM162.866 37.761L163.381 31.9865C154.899 36.6387 144.423 37.2912 142.834 29.1482H164.254V26.5708C163.993 17.8013 157.303 13.4688 150.404 13.4688C143.348 13.4688 136.449 17.9579 136.449 27.0863C136.449 40.9061 151.277 43.7379 162.866 37.761Z" fill="black"/>
</svg>
